<svg xmlns="http://www.w3.org/2000/svg" version="1.1" xmlns:xlink="http://www.w3.org/1999/xlink" xmlns:svgjs="http://svgjs.dev/svgjs" width="1440" height="560" preserveAspectRatio="none" viewBox="0 0 1440 560"><g mask="url(&quot;#SvgjsMask1001&quot;)" fill="none"><path d="M822.7639455111549 379.3755863677647L817.4372685564751 481.0146374313823 924.4029965747725 384.70226332244454z" fill="rgba(28, 83, 142, 0.4)" class="triangle-float2"></path><path d="M767.2014465424141 267.054066216855L629.9522810936535 281.4795347921993 644.3777496689978 418.72870024095994 781.6269151177585 404.30323166561567z" fill="rgba(28, 83, 142, 0.4)" class="triangle-float1"></path><path d="M982.6534907515079 80.70227373296979L1032.167990114151 1.4625107147505645 888.5510959055007-33.18935682010479z" fill="rgba(28, 83, 142, 0.4)" class="triangle-float1"></path><path d="M1211.314,95.861C1229.062,96.554,1246.408,88.627,1255.719,73.501C1265.48,57.643,1266.325,37.603,1257.148,21.4C1247.844,4.973,1230.193,-5.018,1211.314,-4.899C1192.637,-4.781,1175.037,5.376,1166.472,21.973C1158.5,37.421,1163.514,55.392,1172.533,70.253C1181.147,84.447,1194.724,95.213,1211.314,95.861" fill="rgba(28, 83, 142, 0.4)" class="triangle-float3"></path><path d="M1439.0666294719147 415.1595277742705L1300.1524322526027 331.6914572413581 1216.6843617196903 470.60565446067005 1355.5985589390023 554.0737249935825z" fill="rgba(28, 83, 142, 0.4)" class="triangle-float1"></path><path d="M165.241,229.972C203.305,232.138,242.911,218.542,262.364,185.752C282.147,152.406,276.221,110.351,255.741,77.428C236.427,46.379,201.802,29.019,165.241,29.624C129.744,30.212,96.791,49.176,79.787,80.341C63.442,110.299,68.622,146.055,85.546,175.69C102.63,205.604,130.848,228.015,165.241,229.972" fill="rgba(28, 83, 142, 0.4)" class="triangle-float3"></path></g><defs><mask id="SvgjsMask1001"><rect width="1440" height="560" fill="#ffffff"></rect></mask><style>
                @keyframes float1 {
                    0%{transform: translate(0, 0)}
                    50%{transform: translate(-10px, 0)}
                    100%{transform: translate(0, 0)}
                }

                .triangle-float1 {
                    animation: float1 5s infinite;
                }

                @keyframes float2 {
                    0%{transform: translate(0, 0)}
                    50%{transform: translate(-5px, -5px)}
                    100%{transform: translate(0, 0)}
                }

                .triangle-float2 {
                    animation: float2 4s infinite;
                }

                @keyframes float3 {
                    0%{transform: translate(0, 0)}
                    50%{transform: translate(0, -10px)}
                    100%{transform: translate(0, 0)}
                }

                .triangle-float3 {
                    animation: float3 6s infinite;
                }
            </style></defs></svg>