<svg xmlns="http://www.w3.org/2000/svg" version="1.1" xmlns:xlink="http://www.w3.org/1999/xlink" xmlns:svgjs="http://svgjs.dev/svgjs" width="1440" height="560" preserveAspectRatio="none" viewBox="0 0 1440 560"><g mask="url(&quot;#SvgjsMask1068&quot;)" fill="none"><rect width="1440" height="560" x="0" y="0" fill="url(&quot;#SvgjsLinearGradient1069&quot;)"></rect><path d="M1440 0L972.73 0L1440 10.11z" fill="rgba(255, 255, 255, .1)"></path><path d="M972.73 0L1440 10.11L1440 122.45L889.26 0z" fill="rgba(255, 255, 255, .075)"></path><path d="M889.26 0L1440 122.45L1440 129.76L838.6 0z" fill="rgba(255, 255, 255, .05)"></path><path d="M838.6 0L1440 129.76L1440 304.87L837.77 0z" fill="rgba(255, 255, 255, .025)"></path><path d="M0 560L204.81 560L0 318.74z" fill="rgba(0, 0, 0, .1)"></path><path d="M0 318.74L204.81 560L481.37 560L0 156.18z" fill="rgba(0, 0, 0, .075)"></path><path d="M0 156.18L481.37 560L774.38 560L0 68.27000000000001z" fill="rgba(0, 0, 0, .05)"></path><path d="M0 68.26999999999998L774.38 560L805.31 560L0 52.59999999999998z" fill="rgba(0, 0, 0, .025)"></path></g><defs><mask id="SvgjsMask1068"><rect width="1440" height="560" fill="#ffffff"></rect></mask><linearGradient x1="15.28%" y1="-39.29%" x2="84.72%" y2="139.29%" gradientUnits="userSpaceOnUse" id="SvgjsLinearGradient1069"><stop stop-color="#0e2a47" offset="0"></stop><stop stop-color="rgba(102, 136, 181, 1)" offset="1"></stop></linearGradient></defs></svg>